<?xml version="1.0" standalone="no"?>
<!DOCTYPE svg PUBLIC "-//W3C//DTD SVG 20010904//EN"
 "http://www.w3.org/TR/2001/REC-SVG-20010904/DTD/svg10.dtd">
<svg version="1.0" xmlns="http://www.w3.org/2000/svg"
 width="512.000000pt" height="512.000000pt" viewBox="0 0 512.000000 512.000000"
 preserveAspectRatio="xMidYMid meet">
<metadata>
Created by potrace 1.14, written by Peter Selinger 2001-2017
</metadata>
<g transform="translate(0.000000,512.000000) scale(0.100000,-0.100000)"
fill="#000000" stroke="none">
<path d="M0 2560 l0 -2560 2560 0 2560 0 0 2560 0 2560 -2560 0 -2560 0 0
-2560z m1897 1784 c-3 -3 -37 -12 -76 -19 -186 -36 -399 -226 -507 -455 -25
-52 -49 -102 -54 -111 -5 -9 -15 -65 -23 -125 -13 -89 -17 -297 -21 -1114 -7
-1191 -16 -1770 -28 -1770 -4 0 -8 7 -8 16 0 8 -4 13 -9 10 -5 -3 -12 2 -16
12 -11 24 -14 762 -5 1072 11 389 19 702 31 1195 13 562 25 658 111 829 52
104 86 153 167 238 107 114 209 179 332 212 55 15 117 21 106 10z m1370 -15
c148 -59 215 -101 311 -198 141 -141 253 -357 281 -545 6 -33 12 -142 16 -241
29 -917 37 -1293 38 -1880 2 -720 -1 -768 -45 -824 -12 -16 -15 -27 -8 -31 22
-14 -30 -43 -85 -48 -46 -4 -55 -2 -55 12 0 9 7 16 16 16 9 0 12 -5 8 -12 -4
-7 15 10 42 37 27 28 55 64 61 80 35 97 36 111 30 432 -3 175 -11 725 -16
1223 -13 1135 -15 1202 -42 1305 -50 193 -123 319 -269 465 -111 111 -187 159
-317 200 -50 16 -54 18 -26 19 18 1 45 -4 60 -10z m-666 -170 c60 -30 129 -98
150 -147 52 -121 -8 -273 -131 -337 -81 -42 -209 -23 -279 40 -85 77 -113 233
-59 326 71 120 213 173 319 118z m901 -1256 c23 -21 23 -45 -1 -74 -18 -22
-27 -24 -113 -24 -99 -1 -129 -10 -150 -48 -19 -36 -22 -342 -4 -472 8 -60 18
-119 21 -131 10 -31 -23 -64 -70 -70 -76 -9 -72 -34 -76 426 -1 119 -6 185
-15 208 -12 30 -16 32 -64 32 -28 0 -66 -7 -85 -14 -30 -13 -39 -13 -69 -1
-19 8 -38 20 -41 25 -5 8 -13 6 -26 -6 -17 -15 -25 -16 -75 -5 -94 21 -252 -8
-275 -51 -13 -25 -5 -113 12 -134 9 -11 46 -14 169 -14 143 0 158 -2 175 -20
18 -20 15 -48 -7 -54 -7 -2 -80 -14 -162 -27 -91 -14 -156 -29 -166 -38 -17
-15 -17 -22 -4 -106 16 -104 13 -120 -26 -140 -39 -20 -53 -19 -75 5 -17 18
-18 43 -19 258 l-1 238 -28 33 c-38 46 -37 94 2 117 17 10 32 28 36 41 7 29
48 56 74 48 10 -3 24 -19 30 -35 12 -36 27 -37 157 -14 97 17 147 14 174 -11
17 -15 19 -15 24 3 12 37 49 44 142 25 79 -15 89 -15 132 0 26 8 85 19 132 22
47 4 103 10 125 15 70 14 127 11 147 -7z m-1317 -23 c16 -17 17 -29 9 -107
-15 -143 -9 -389 10 -459 46 -174 -14 -251 -115 -146 -52 54 -84 98 -202 275
-46 71 -87 125 -89 120 -13 -22 -8 -183 6 -224 35 -99 7 -183 -58 -177 -49 5
-55 38 -56 303 -1 180 -4 235 -15 255 -19 33 -19 100 1 128 11 16 25 22 55 22
34 0 42 -5 69 -42 16 -22 30 -46 30 -52 0 -6 27 -65 60 -131 53 -107 152 -254
173 -255 4 0 7 37 7 83 1 45 5 127 10 182 6 66 5 113 -1 139 -10 36 -9 41 22
72 38 39 58 42 84 14z m60 -1290 c65 -32 87 -110 45 -163 -19 -24 -20 -29 -6
-49 16 -25 25 -145 13 -165 -9 -14 -55 -17 -74 -5 -7 4 -15 35 -19 67 -7 68
-22 85 -71 85 l-33 0 0 -63 c0 -79 -13 -100 -60 -95 l-35 3 -3 190 c-1 104 0
195 2 202 4 9 33 13 103 13 76 0 105 -4 138 -20z m369 4 c12 -31 7 -369 -6
-382 -16 -16 -70 -16 -86 0 -13 13 -18 351 -6 382 4 11 19 16 49 16 30 0 45
-5 49 -16z m451 0 c51 -24 68 -49 73 -108 4 -50 2 -56 -30 -91 -32 -35 -40
-39 -104 -44 l-69 -6 -3 -67 c-3 -62 -5 -68 -26 -74 -13 -3 -35 -4 -47 -2
l-24 3 -3 190 c-1 104 0 195 2 202 8 20 188 18 231 -3z m-610 -334 l0 -55 -45
0 -45 0 -3 58 -3 58 48 -3 48 -3 0 -55z m313 3 l-3 -58 -45 0 -45 0 -3 44 c-5
64 1 71 53 71 l46 0 -3 -57z m1420 -391 c2 -7 -7 -12 -23 -12 -24 0 -26 2 -15
15 14 17 31 16 38 -3z m47 -2 c3 -5 -1 -10 -9 -10 -9 0 -16 5 -16 10 0 6 4 10
9 10 6 0 13 -4 16 -10z"/>
<path d="M2435 4072 c-23 -5 -45 -21 -45 -33 0 -5 11 -11 25 -15 33 -8 49 -37
35 -63 -7 -14 -7 -22 1 -27 12 -7 7 -113 -7 -161 -4 -14 -2 -23 5 -23 10 0 50
56 97 136 11 18 13 18 68 -5 66 -27 86 -19 86 34 0 37 -20 51 -52 34 -46 -25
-92 19 -53 51 25 21 17 37 -22 45 -29 5 -40 3 -49 -10 -11 -15 -13 -14 -16 6
-3 24 -37 38 -73 31z m125 -61 c0 -5 -6 -14 -14 -20 -16 -13 -32 2 -21 19 8
12 35 13 35 1z m-43 -99 c-25 -25 -27 -25 -27 -6 0 12 10 25 23 31 33 15 34 6
4 -25z m153 3 c0 -8 -4 -15 -10 -15 -5 0 -10 7 -10 15 0 8 5 15 10 15 6 0 10
-7 10 -15z m-35 -5 c3 -5 2 -10 -4 -10 -5 0 -13 5 -16 10 -3 6 -2 10 4 10 5 0
13 -4 16 -10z"/>
<path d="M2347 3933 c-11 -10 -8 -41 5 -49 14 -9 38 23 31 42 -5 15 -25 19
-36 7z"/>
<path d="M2100 1485 c0 -42 17 -52 68 -39 69 17 50 74 -24 74 -44 0 -44 0 -44
-35z"/>
<path d="M2932 1478 c3 -39 6 -43 31 -46 34 -4 77 22 77 46 0 29 -21 42 -68
42 l-43 0 3 -42z"/>
</g>
</svg>
